<svg width="212" height="213" viewBox="0 0 212 213" fill="none" xmlns="http://www.w3.org/2000/svg">
<path d="M47.1698 68.801L46.7189 69.582L41.3938 68.3363C41.1556 68.2855 40.8604 68.2122 40.5083 68.1164C40.1562 68.0205 39.9483 67.9563 39.8848 67.9238C40.2529 68.2272 40.6363 68.5932 41.0351 69.0218L44.7728 72.9527L44.3219 73.7337L36.508 71.6338L36.9912 70.7969L41.7925 72.137C42.4649 72.3269 43.0585 72.525 43.5733 72.7312C43.0567 72.3214 42.5757 71.8784 42.1303 71.4022L38.7171 67.8075L39.2003 66.9707L44.0919 68.0902C44.6563 68.2176 45.269 68.404 45.93 68.6493C45.5257 68.3373 45.0561 67.9174 44.5212 67.3895L40.9665 63.9115L41.4497 63.0746L47.1698 68.801Z" fill="#A1A1A1"/>
<path d="M58.0327 55.6934L57.4012 56.352L54.75 53.8007L51.89 56.7839L54.5412 59.3352L53.9097 59.9938L48.2759 54.5723L48.9073 53.9136L51.3042 56.2202L54.1643 53.237L51.7674 50.9304L52.3988 50.2718L58.0327 55.6934Z" fill="#A1A1A1"/>
<path d="M71.111 45.9763L67.4202 48.3188L63.2497 41.6992L66.9405 39.3567L67.3712 40.0404L64.4503 41.8943L65.7939 44.0269L68.5382 42.2851L68.9661 42.9642L66.2218 44.706L67.7565 47.1419L70.6774 45.288L71.111 45.9763Z" fill="#A1A1A1"/>
<path d="M81.9913 37.4724L83.0163 40.5635L82.1528 40.8538L79.6879 33.4209L81.7249 32.7363C82.6358 32.4302 83.3659 32.3788 83.9152 32.5822C84.4678 32.7845 84.8604 33.2365 85.0931 33.938C85.419 34.921 85.1415 35.7526 84.2606 36.4329L87.3849 39.0954L86.3639 39.4385L83.5406 36.9518L81.9913 37.4724ZM81.7451 36.7302L82.9287 36.3324C83.5383 36.1275 83.9454 35.857 84.15 35.5207C84.3536 35.1811 84.375 34.7689 84.2142 34.2843C84.0513 33.7928 83.7882 33.4876 83.425 33.3685C83.0652 33.2483 82.5653 33.2958 81.9253 33.5109L80.8027 33.8882L81.7451 36.7302Z" fill="#A1A1A1"/>
<path d="M103.233 36.6385L98.8841 36.9978L98.2681 29.1836L102.617 28.8243L102.68 29.6313L99.2388 29.9157L99.4372 32.4331L102.671 32.166L102.734 32.9677L99.5004 33.2349L99.7271 36.1104L103.169 35.826L103.233 36.6385Z" fill="#A1A1A1"/>
<path d="M132.882 42.0068L135.962 34.7881L136.799 35.144L133.719 42.3626L132.882 42.0068Z" fill="#A1A1A1"/>
<path d="M153.301 49.6808C152.523 50.7168 151.648 51.2985 150.674 51.4259C149.705 51.5525 148.695 51.2205 147.644 50.4298L145.913 49.128L150.625 42.8516L152.539 44.2916C153.511 45.0223 154.063 45.8606 154.195 46.8065C154.327 47.7524 154.029 48.7105 153.301 49.6808ZM152.513 49.1279C153.127 48.3094 153.385 47.5383 153.286 46.8148C153.19 46.0934 152.739 45.4294 151.933 44.823L150.878 44.0291L147.114 49.0433L147.998 49.7087C148.864 50.3601 149.675 50.6366 150.431 50.538C151.189 50.4365 151.883 49.9665 152.513 49.1279Z" fill="#A1A1A1"/>
<path d="M161.777 64.4714L159.024 61.0905L165.094 56.1211L167.847 59.5019L167.22 60.0152L165.041 57.3396L163.086 58.9405L165.133 61.4544L164.51 61.9642L162.463 59.4504L160.229 61.2791L162.408 63.9547L161.777 64.4714Z" fill="#A1A1A1"/>
<path d="M170.21 79.1963L172.045 77.2422L170.705 74.4053L168.043 74.6069L167.65 73.7742L176.076 73.1849L176.402 73.8772L170.613 80.0484L170.21 79.1963ZM172.664 76.6326L174.467 74.7643C174.695 74.5255 174.983 74.2534 175.333 73.9482C174.99 74.0249 174.602 74.0855 174.168 74.1301L171.583 74.3427L172.664 76.6326Z" fill="#A1A1A1"/>
<path d="M176.847 94.94C176.172 95.0792 175.597 94.9426 175.12 94.5303C174.643 94.1179 174.32 93.4915 174.15 92.6511C173.966 91.7406 173.942 91.016 174.077 90.4775L174.937 90.3C174.868 90.6426 174.832 91.0074 174.83 91.3945C174.829 91.7815 174.864 92.1572 174.938 92.5214C175.058 93.1167 175.261 93.5418 175.545 93.7968C175.834 94.0511 176.179 94.1368 176.581 94.0538C176.847 93.999 177.053 93.9 177.199 93.7568C177.349 93.6164 177.47 93.4054 177.562 93.1237C177.656 92.8455 177.741 92.432 177.82 91.8832C177.931 91.1162 178.13 90.5425 178.418 90.1622C178.706 89.7854 179.131 89.539 179.694 89.4229C180.285 89.301 180.801 89.4263 181.24 89.7989C181.68 90.1715 181.974 90.7238 182.122 91.4557C182.276 92.2191 182.278 92.95 182.127 93.6486L181.295 93.5303C181.433 92.8416 181.441 92.1979 181.32 91.5991C181.224 91.1263 181.048 90.7778 180.792 90.5535C180.535 90.3292 180.227 90.2542 179.866 90.3285C179.601 90.3833 179.392 90.4774 179.24 90.6108C179.092 90.7435 178.97 90.9402 178.873 91.2009C178.781 91.4643 178.697 91.8536 178.623 92.3687C178.499 93.2333 178.303 93.85 178.035 94.219C177.768 94.5915 177.372 94.8318 176.847 94.94Z" fill="#A1A1A1"/>
<path d="M172.928 125.466L180.33 124.832L180.342 124.791C179.801 124.686 179.167 124.53 178.441 124.32L173.662 122.941L173.897 122.132L181.41 124.3L181.026 125.619L174.136 126.217L174.124 126.258L179.621 130.454L179.24 131.763L171.728 129.594L171.983 128.718L176.823 130.115C177.378 130.275 177.974 130.473 178.611 130.709L178.623 130.668L172.723 126.172L172.928 125.466Z" fill="#A1A1A1"/>
<path d="M164.748 143.883L166.935 140.093L173.705 144.002L171.517 147.791L170.818 147.387L172.549 144.389L170.368 143.129L168.742 145.947L168.047 145.546L169.674 142.728L167.183 141.29L165.451 144.289L164.748 143.883Z" fill="#A1A1A1"/>
<path d="M154.067 156.953L157.094 153.795L162.728 159.217L159.701 162.374L159.119 161.814L161.514 159.315L159.699 157.569L157.449 159.917L156.87 159.36L159.121 157.013L157.048 155.018L154.652 157.516L154.067 156.953Z" fill="#A1A1A1"/>
<path d="M142.223 166.052L142.993 165.564L146.733 171.5L148.829 170.169L149.26 170.853L144.297 174.003L143.866 173.319L145.963 171.988L142.223 166.052Z" fill="#A1A1A1"/>
<path d="M108.53 178.517C108.476 177.83 108.682 177.273 109.15 176.847C109.618 176.421 110.278 176.173 111.132 176.102C112.057 176.026 112.778 176.086 113.294 176.284L113.364 177.16C113.033 177.051 112.676 176.973 112.293 176.926C111.909 176.879 111.533 176.87 111.163 176.901C110.558 176.951 110.112 177.103 109.824 177.356C109.536 177.613 109.409 177.946 109.441 178.356C109.462 178.627 109.535 178.843 109.658 179.005C109.779 179.171 109.973 179.316 110.241 179.441C110.505 179.566 110.904 179.7 111.438 179.843C112.184 180.043 112.727 180.308 113.068 180.638C113.406 180.969 113.597 181.421 113.643 181.995C113.69 182.597 113.502 183.095 113.078 183.489C112.655 183.883 112.071 184.11 111.328 184.171C110.552 184.236 109.828 184.152 109.154 183.921L109.375 183.106C110.04 183.324 110.677 183.408 111.285 183.357C111.765 183.318 112.132 183.183 112.386 182.954C112.64 182.725 112.753 182.427 112.724 182.06C112.703 181.789 112.635 181.571 112.522 181.404C112.409 181.242 112.229 181.097 111.983 180.97C111.733 180.847 111.358 180.719 110.857 180.584C110.016 180.36 109.429 180.093 109.097 179.783C108.761 179.474 108.572 179.052 108.53 178.517Z" fill="#A1A1A1"/>
<path d="M90.7291 174.929L91.7854 175.099L93.9851 179.307L94.9111 178.717L95.4084 175.683L96.3062 175.828L95.0375 183.569L94.1397 183.425L94.7688 179.586L90.6381 182.86L89.5766 182.689L93.2331 179.827L90.7291 174.929Z" fill="#A1A1A1"/>
<path d="M78.8125 171.062L75.7324 178.28L74.8959 177.924L77.976 170.706L78.8125 171.062Z" fill="#A1A1A1"/>
<path d="M65.2597 163.548L60.5484 169.825L59.822 169.279L64.0371 163.663L61.281 161.59L61.7773 160.929L65.2597 163.548Z" fill="#A1A1A1"/>
<path d="M52.8567 152.206L46.7868 157.176L46.2126 156.471L51.6431 152.025L49.4645 149.349L50.1038 148.825L52.8567 152.206Z" fill="#A1A1A1"/>
<path d="M39.62 134.809C40.2427 134.512 40.8349 134.506 41.3967 134.792C41.9585 135.078 42.4223 135.608 42.7881 136.382C43.1843 137.222 43.381 137.919 43.3782 138.473L42.5846 138.852C42.57 138.503 42.5174 138.141 42.4269 137.765C42.3363 137.389 42.2118 137.033 42.0533 136.697C41.7942 136.148 41.4959 135.785 41.1583 135.606C40.8176 135.428 40.4617 135.428 40.0907 135.605C39.8455 135.721 39.669 135.867 39.5614 136.041C39.4491 136.213 39.3816 136.447 39.359 136.742C39.335 137.034 39.3503 137.456 39.405 138.007C39.4804 138.778 39.4238 139.382 39.2353 139.82C39.0453 140.255 38.6905 140.596 38.1711 140.844C37.6259 141.104 37.0951 141.106 36.579 140.85C36.0628 140.593 35.6454 140.128 35.3269 139.454C34.9947 138.75 34.8182 138.041 34.7974 137.328L35.6348 137.243C35.6654 137.944 35.8111 138.57 36.0717 139.122C36.2774 139.558 36.5318 139.854 36.8347 140.01C37.1376 140.166 37.4553 140.165 37.7876 140.006C38.0328 139.889 38.2131 139.748 38.3285 139.582C38.4407 139.418 38.5126 139.198 38.5443 138.922C38.5713 138.644 38.5594 138.246 38.5087 137.729C38.4228 136.86 38.4659 136.215 38.6381 135.793C38.8088 135.368 39.1361 135.04 39.62 134.809Z" fill="#A1A1A1"/>
<path d="M33.5705 105.063L32.7577 105.031L32.8681 102.4L33.6809 102.431L33.5705 105.063Z" fill="#A1A1A1"/>
<path d="M88.7241 91.228C90.0787 89.8708 91.2911 88.9572 92.3614 88.4873C93.4324 87.9564 94.6541 87.5457 96.0265 87.2552C97.1247 86.9983 97.8585 86.6848 98.2279 86.3147C98.505 86.037 98.5702 85.6705 98.4234 85.2149C98.2466 84.7293 97.8586 84.0937 97.2594 83.3082L98.3215 82.244C99.9114 84.1457 102.901 87.2959 107.291 91.6946L106.229 92.7588C103.609 90.5035 100.841 89.1797 97.925 88.7874C95.0099 88.3341 92.3671 89.295 89.9967 91.6702C88.3343 93.336 87.4759 95.1904 87.4214 97.2334C87.3369 99.2463 88.0613 101.021 89.5948 102.558C90.7373 103.702 91.9912 104.434 93.3564 104.754C94.7524 105.042 96.1667 105.071 97.5993 104.841C99.0318 104.61 100.984 104.191 103.455 103.583L105.606 103.054C108.718 102.286 111.279 101.798 113.29 101.592C115.3 101.324 117.216 101.424 119.036 101.89C120.856 102.356 122.532 103.357 124.066 104.894C126.802 107.636 127.998 110.685 127.654 114.042C127.28 117.369 125.677 120.452 122.845 123.29C121.368 124.77 120.001 125.838 118.746 126.493C117.522 127.117 116.223 127.605 114.85 127.957C113.752 128.214 113.018 128.527 112.649 128.897C112.372 129.175 112.322 129.556 112.498 130.042C112.645 130.498 113.018 131.118 113.617 131.904L112.555 132.968C111.025 131.187 107.478 127.51 101.916 121.937L102.978 120.872C106.23 123.699 109.465 125.399 112.683 125.97C115.901 126.542 118.88 125.455 121.62 122.71C123.282 121.044 124.202 119.128 124.38 116.962C124.527 114.765 123.609 112.673 121.625 110.684C119.941 108.997 117.928 108.152 115.585 108.149C113.274 108.115 110.134 108.61 106.167 109.632C103.269 110.367 100.829 110.884 98.848 111.182C96.8979 111.449 94.9824 111.349 93.1018 110.884C91.191 110.388 89.4389 109.342 87.8453 107.745C85.3197 105.214 84.2265 102.453 84.5659 99.4619C84.8753 96.4404 86.2614 93.6958 88.7241 91.228Z" fill="#A1A1A1"/>
</svg>
