<svg width="28" height="236" viewBox="0 0 28 236" fill="none" xmlns="http://www.w3.org/2000/svg">
<path d="M9.672 226.896C10.5787 226.971 11.3893 227.008 12.104 227.008C12.6053 227.008 13.0107 226.992 13.32 226.96L13.32 227.328C12.1147 227.541 11.2667 227.861 10.776 228.288C10.2853 228.715 10.04 229.312 10.04 230.08L10.04 230.608C10.04 230.939 10.0667 231.179 10.12 231.328C10.1733 231.477 10.28 231.579 10.44 231.632C10.5893 231.685 10.8347 231.712 11.176 231.712L15.208 231.712L15.208 231.152C15.208 230.587 15 230.16 14.584 229.872C14.168 229.573 13.672 229.365 13.096 229.248L13.096 228.88C13.544 228.912 14.0453 228.928 14.6 228.928L15.368 228.928C15.912 228.928 16.6693 228.896 17.64 228.832L17.64 229.2C16.232 229.424 15.528 230.075 15.528 231.152L15.528 231.712L19.208 231.712C19.6347 231.712 19.9493 231.669 20.152 231.584C20.344 231.488 20.472 231.328 20.536 231.104C20.6 230.869 20.6373 230.501 20.648 230L21 230C20.968 231.312 20.952 232.288 20.952 232.928C20.952 233.461 20.9627 234.133 20.984 234.944L21 235.456L20.68 235.456C20.6587 235.104 20.616 234.848 20.552 234.688C20.488 234.517 20.3653 234.405 20.184 234.352C20.0027 234.288 19.7093 234.256 19.304 234.256L11.368 234.256C10.9627 234.256 10.6693 234.288 10.488 234.352C10.3067 234.405 10.184 234.517 10.12 234.688C10.056 234.848 10.0133 235.104 9.992 235.456L9.672 235.456C9.704 234.304 9.72 232.565 9.72 230.24C9.72 228.672 9.704 227.557 9.672 226.896ZM15.048 219.011C15.1547 217.625 15.4747 216.606 16.008 215.955C16.5413 215.305 17.1707 214.979 17.896 214.979C18.888 214.979 19.656 215.369 20.2 216.147C20.7333 216.926 21 218.009 21 219.395C21 219.705 20.9947 219.966 20.984 220.179C20.9627 220.883 20.952 221.571 20.952 222.243C20.952 223.342 20.968 224.163 21 224.707L20.68 224.707C20.6587 224.355 20.616 224.099 20.552 223.939C20.488 223.769 20.3653 223.657 20.184 223.603C20.0027 223.539 19.7093 223.507 19.304 223.507L11.368 223.507C10.9627 223.507 10.6693 223.539 10.488 223.603C10.3067 223.657 10.184 223.769 10.12 223.939C10.056 224.099 10.0133 224.355 9.992 224.707L9.672 224.707C9.704 224.163 9.72 223.353 9.72 222.275L9.704 220.499C9.69333 220.286 9.688 220.041 9.688 219.763C9.688 218.483 9.91733 217.507 10.376 216.835C10.8347 216.153 11.4427 215.811 12.2 215.811C12.8187 215.811 13.3947 216.083 13.928 216.627C14.4613 217.161 14.824 217.955 15.016 219.011L15.048 219.011ZM9.992 219.971C9.992 220.259 10.0293 220.473 10.104 220.611C10.1787 220.739 10.312 220.83 10.504 220.883C10.696 220.937 10.984 220.963 11.368 220.963L14.984 220.963L14.984 220.275C14.984 219.582 14.7493 219.097 14.28 218.819C13.8 218.542 13.1653 218.403 12.376 218.403C11.576 218.403 10.9787 218.531 10.584 218.787C10.1893 219.033 9.992 219.427 9.992 219.971ZM20.632 219.859C20.632 218.377 19.6987 217.635 17.832 217.635C16.9893 217.635 16.3493 217.849 15.912 218.275C15.4747 218.702 15.256 219.374 15.256 220.291L15.256 220.963L19.304 220.963C19.688 220.963 19.9707 220.937 20.152 220.883C20.3333 220.83 20.4613 220.729 20.536 220.579C20.6 220.419 20.632 220.179 20.632 219.859Z" fill="#141414"/>
<rect x="13.5" y="198" width="16" height="1" transform="rotate(-90 13.5 198)" fill="#A1A1A1"/>
<path d="M9.992 160.512C10.0133 160.875 10.056 161.136 10.12 161.296C10.184 161.456 10.3067 161.568 10.488 161.632C10.6693 161.685 10.9627 161.712 11.368 161.712L19.304 161.712C19.7093 161.712 20.0027 161.685 20.184 161.632C20.3653 161.568 20.488 161.456 20.552 161.296C20.616 161.136 20.6587 160.875 20.68 160.512L21 160.512C20.968 161.088 20.952 161.893 20.952 162.928C20.952 164.069 20.968 164.912 21 165.456L20.68 165.456C20.6587 165.104 20.616 164.848 20.552 164.688C20.488 164.517 20.3653 164.405 20.184 164.352C20.0027 164.288 19.7093 164.256 19.304 164.256L11.368 164.256C10.9627 164.256 10.6693 164.288 10.488 164.352C10.3067 164.405 10.184 164.517 10.12 164.688C10.056 164.848 10.0133 165.104 9.992 165.456L9.672 165.456C9.704 164.912 9.72 164.069 9.72 162.928C9.72 161.893 9.704 161.088 9.672 160.512L9.992 160.512ZM9.992 147.616C10.0453 147.968 10.136 148.23 10.264 148.4C10.392 148.56 10.5947 148.672 10.872 148.736C11.1493 148.79 11.56 148.816 12.104 148.816L21.032 148.816L21.016 149.2L21.032 149.632L12.232 156.576L18.376 156.576C19.0053 156.576 19.4693 156.544 19.768 156.48C20.056 156.416 20.2693 156.278 20.408 156.064C20.536 155.851 20.6267 155.504 20.68 155.024L21 155.024C20.968 155.44 20.952 156.016 20.952 156.752C20.952 157.339 20.968 157.803 21 158.144L20.68 158.144C20.6267 157.792 20.536 157.536 20.408 157.376C20.28 157.206 20.0773 157.094 19.8 157.04C19.5227 156.976 19.112 156.944 18.568 156.944L11.368 156.944C10.9627 156.944 10.6693 156.976 10.488 157.04C10.3067 157.094 10.184 157.206 10.12 157.376C10.056 157.536 10.0133 157.792 9.992 158.144L9.672 158.144C9.704 157.803 9.72 157.339 9.72 156.752C9.72 156.219 9.704 155.76 9.672 155.376L17.304 149.184L12.296 149.184C11.6667 149.184 11.208 149.216 10.92 149.28C10.6213 149.344 10.408 149.483 10.28 149.696C10.1413 149.91 10.0453 150.256 9.992 150.736L9.672 150.736C9.704 150.32 9.72 149.744 9.72 149.008C9.72 148.411 9.704 147.947 9.672 147.616L9.992 147.616Z" fill="#141414"/>
<rect x="13.5" y="131" width="16" height="1" transform="rotate(-90 13.5 131)" fill="#A1A1A1"/>
<path d="M9.672 88.728C10.6853 88.8027 11.592 88.84 12.392 88.84C12.8933 88.84 13.2987 88.824 13.608 88.792L13.608 89.16C12.296 89.416 11.3733 89.768 10.84 90.216C10.3067 90.6533 10.04 91.256 10.04 92.024L10.04 92.392L19.176 92.392C19.624 92.392 19.9493 92.3493 20.152 92.264C20.3547 92.168 20.4933 92.008 20.568 91.784C20.632 91.5493 20.6693 91.1813 20.68 90.68L21 90.68C20.968 92.024 20.952 93.0373 20.952 93.72C20.952 94.392 20.968 95.368 21 96.648L20.68 96.648C20.6693 96.1467 20.632 95.784 20.568 95.56C20.4933 95.3253 20.3547 95.1653 20.152 95.08C19.9493 94.984 19.624 94.936 19.176 94.936L10.04 94.936L10.04 95.288C10.04 95.8 10.152 96.2373 10.376 96.6C10.6 96.952 10.9733 97.256 11.496 97.512C12.008 97.768 12.712 97.9867 13.608 98.168L13.608 98.536C13.2987 98.504 12.8933 98.488 12.392 98.488C11.592 98.488 10.6853 98.5253 9.672 98.6C9.704 97.6293 9.72 95.9813 9.72 93.656C9.72 91.3307 9.704 89.688 9.672 88.728ZM9.72 72.6805C9.72 72.1792 9.704 71.7685 9.672 71.4485L9.992 71.4485C10.0987 71.7152 10.3067 71.9765 10.616 72.2325C10.9147 72.4778 11.3413 72.6858 11.896 72.8565L21.032 75.6725C21.0213 75.7898 21.016 75.9765 21.016 76.2325C21.016 76.4885 21.0213 76.6752 21.032 76.7925L13.896 79.1445L21.032 81.5125C21.0213 81.6298 21.016 81.8165 21.016 82.0725C21.016 82.3285 21.0213 82.5152 21.032 82.6325L11.016 86.2165C10.664 86.3445 10.408 86.4992 10.248 86.6805C10.088 86.8618 10.0027 87.0432 9.992 87.2245L9.672 87.2245C9.704 86.5845 9.72 85.7898 9.72 84.8405C9.72 83.9445 9.704 83.2885 9.672 82.8725L9.992 82.8725C10.0453 83.2458 10.2533 83.4325 10.616 83.4325C10.7867 83.4325 11.0267 83.3845 11.336 83.2885L18.104 80.9525L13.336 79.3365L10.856 80.1525C10.5467 80.2592 10.3333 80.3872 10.216 80.5365C10.088 80.6752 10.0133 80.8405 9.992 81.0325L9.672 81.0325C9.704 80.4352 9.72 79.6725 9.72 78.7445C9.72 77.6992 9.704 76.9312 9.672 76.4405L9.992 76.4405C10.0027 76.8245 10.0507 77.1018 10.136 77.2725C10.2107 77.4432 10.36 77.5285 10.584 77.5285C10.776 77.5285 11.0267 77.4752 11.336 77.3685L18.024 75.1765L13.192 73.6565C12.392 73.4112 11.7733 73.2885 11.336 73.2885C10.8773 73.2885 10.5467 73.4058 10.344 73.6405C10.1307 73.8645 10.0133 74.2058 9.992 74.6645L9.672 74.6645C9.704 73.9392 9.72 73.2778 9.72 72.6805Z" fill="#141414"/>
<rect x="13.5" y="55" width="16" height="1" transform="rotate(-90 13.5 55)" fill="#A1A1A1"/>
<path d="M15.048 16.76C15.1547 15.3733 15.4747 14.3547 16.008 13.704C16.5413 13.0533 17.1707 12.728 17.896 12.728C18.888 12.728 19.656 13.1173 20.2 13.896C20.7333 14.6747 21 15.7573 21 17.144C21 17.4533 20.9947 17.7147 20.984 17.928C20.9627 18.632 20.952 19.32 20.952 19.992C20.952 21.0907 20.968 21.912 21 22.456L20.68 22.456C20.6587 22.104 20.616 21.848 20.552 21.688C20.488 21.5173 20.3653 21.4053 20.184 21.352C20.0027 21.288 19.7093 21.256 19.304 21.256L11.368 21.256C10.9627 21.256 10.6693 21.288 10.488 21.352C10.3067 21.4053 10.184 21.5173 10.12 21.688C10.056 21.848 10.0133 22.104 9.992 22.456L9.672 22.456C9.704 21.912 9.72 21.1013 9.72 20.024L9.704 18.248C9.69333 18.0347 9.688 17.7893 9.688 17.512C9.688 16.232 9.91733 15.256 10.376 14.584C10.8347 13.9013 11.4427 13.56 12.2 13.56C12.8187 13.56 13.3947 13.832 13.928 14.376C14.4613 14.9093 14.824 15.704 15.016 16.76L15.048 16.76ZM9.992 17.72C9.992 18.008 10.0293 18.2213 10.104 18.36C10.1787 18.488 10.312 18.5787 10.504 18.632C10.696 18.6853 10.984 18.712 11.368 18.712L14.984 18.712L14.984 18.024C14.984 17.3307 14.7493 16.8453 14.28 16.568C13.8 16.2907 13.1653 16.152 12.376 16.152C11.576 16.152 10.9787 16.28 10.584 16.536C10.1893 16.7813 9.992 17.176 9.992 17.72ZM20.632 17.608C20.632 16.1253 19.6987 15.384 17.832 15.384C16.9893 15.384 16.3493 15.5973 15.912 16.024C15.4747 16.4507 15.256 17.1227 15.256 18.04L15.256 18.712L19.304 18.712C19.688 18.712 19.9707 18.6853 20.152 18.632C20.3333 18.5787 20.4613 18.4773 20.536 18.328C20.6 18.168 20.632 17.928 20.632 17.608ZM18.568 1.70487C19.5493 1.70487 20.36 1.66754 21 1.59287C20.968 2.31821 20.952 3.53954 20.952 5.25687C20.952 7.58221 20.968 9.32087 21 10.4729L20.68 10.4729C20.6587 10.1209 20.616 9.86487 20.552 9.70487C20.488 9.53421 20.3653 9.42221 20.184 9.36887C20.0027 9.30487 19.7093 9.27287 19.304 9.27287L11.368 9.27287C10.9627 9.27287 10.6693 9.30487 10.488 9.36887C10.3067 9.42221 10.184 9.53421 10.12 9.70487C10.056 9.86487 10.0133 10.1209 9.992 10.4729L9.672 10.4729C9.704 9.32087 9.72 7.58221 9.72 5.25687C9.72 3.68887 9.704 2.57421 9.672 1.91287C10.5573 1.98754 11.3467 2.02487 12.04 2.02487C12.5093 2.02487 12.872 2.00887 13.128 1.97687L13.128 2.34487C11.9867 2.50487 11.1867 2.79287 10.728 3.20887C10.2693 3.62487 10.04 4.21154 10.04 4.96887L10.04 5.62487C10.04 5.95554 10.0667 6.19554 10.12 6.34487C10.1733 6.49421 10.28 6.59554 10.44 6.64887C10.5893 6.70221 10.8347 6.72887 11.176 6.72887L15.144 6.72887L15.144 6.21687C15.144 5.65154 14.936 5.22487 14.52 4.93687C14.104 4.63821 13.608 4.43021 13.032 4.31287L13.032 3.94487C13.48 3.97687 13.9813 3.99287 14.536 3.99287L15.304 3.99287C15.848 3.99287 16.6053 3.96087 17.576 3.89687L17.576 4.26487C16.168 4.48887 15.464 5.13954 15.464 6.21687L15.464 6.72887L19.496 6.72887C19.8373 6.72887 20.088 6.70221 20.248 6.64887C20.3973 6.59554 20.4987 6.49421 20.552 6.34487C20.6053 6.19554 20.632 5.95554 20.632 5.62487L20.632 4.84087C20.632 4.08354 20.376 3.47554 19.864 3.01687C19.3413 2.54754 18.4613 2.21687 17.224 2.02487L17.224 1.65687C17.576 1.68887 18.024 1.70487 18.568 1.70487Z" fill="#141414"/>
</svg>
